<?xml version="1.0" encoding="UTF-8"?>
<svg width="61px" height="54px" viewBox="0 0 61 54" version="1.1" xmlns="http://www.w3.org/2000/svg" xmlns:xlink="http://www.w3.org/1999/xlink">
    <!-- Generator: Sketch 53.1 (72631) - https://sketchapp.com -->
    <title>Group 19</title>
    <desc>Created with Sketch.</desc>
    <g id="Technical-Demonstrator" stroke="none" stroke-width="1" fill="none" fill-rule="evenodd">
        <g id="iPhone-SE-Copy-3" transform="translate(-130.000000, -36.000000)" fill-rule="nonzero">
            <g id="Group-19" transform="translate(131.000000, 37.000000)">
                <g id="Group-10" transform="translate(12.000000, 11.000000)" fill="#CACACA">
                    <path d="M4.03846154,21 C6.26884226,21 8.07692308,18.6494949 8.07692308,15.75 C8.07692308,13.8170034 7.06730769,8.56700338 5.04807692,0 C1.68269231,8.56700338 0,13.8170034 0,15.75 C0,18.6494949 1.80808082,21 4.03846154,21 Z" id="Oval-17"></path>
                    <path d="M30.9615385,21 C33.1919192,21 35,18.6494949 35,15.75 C35,13.8170034 33.9903846,8.56700338 31.9711538,0 C28.6057692,8.56700338 26.9230769,13.8170034 26.9230769,15.75 C26.9230769,18.6494949 28.7311577,21 30.9615385,21 Z" id="Oval-17" transform="translate(30.961538, 10.500000) scale(-1, 1) translate(-30.961538, -10.500000) "></path>
                </g>
                <g id="Group-4" stroke="#848080" stroke-width="1.4">
                    <g id="Group">
                        <path d="M29.489603,19.6503194 C28.9484854,12.1544444 26.378355,8.40650692 21.7792119,8.40650692 C14.8804973,8.40650692 9.74967118,17.271771 9.74967118,24.7637653 C9.74967118,28.6778172 12.1805862,32.3885886 15.3918351,32.3885886 C18.6030841,32.3885886 20.3355258,29.3639771 20.3355258,24.7637653 C20.3355258,15.1312012 11.8658519,0 6.08569217,0 C0.305532399,1.2243944e-15 -3.2267815,26.3419855 4.24526464,38.0730874 C10.1198483,47.2961755 18.5346278,51.9077196 29.489603,51.9077196" id="Path-Copy-6"></path>
                        <path d="M58.979206,19.6503194 C58.4380884,12.1544444 55.867958,8.40650692 51.2688149,8.40650692 C44.3701004,8.40650692 39.2392742,17.271771 39.2392742,24.7637653 C39.2392742,28.6778172 41.6701892,32.3885886 44.8814382,32.3885886 C48.0926871,32.3885886 49.8251288,29.3639771 49.8251288,24.7637653 C49.8251288,15.1312012 41.355455,0 35.5752952,0 C29.7951354,1.2243944e-15 26.2628215,26.3419855 33.7348677,38.0730874 C39.6094514,47.2961755 48.0242308,51.9077196 58.979206,51.9077196" id="Path-Copy-6" transform="translate(44.234405, 25.953860) scale(-1, 1) translate(-44.234405, -25.953860) "></path>
                    </g>
                </g>
                <ellipse id="Oval-15" stroke="#848080" stroke-width="1.2" fill="#F6FF40" cx="28.5" cy="19" rx="3.9" ry="3.4"></ellipse>
                <path d="M29,43 C33.9705627,43 38,40.0461131 38,38.5821746 C38,37.118236 33.9705627,38.8766963 29,38.8766963 C24.0294373,38.8766963 20,37.118236 20,38.5821746 C20,40.0461131 24.0294373,43 29,43 Z" id="Oval-10-Copy-2" fill="#CACACA"></path>
            </g>
        </g>
    </g>
</svg>