<?xml version="1.0" encoding="UTF-8"?>
<svg width="78px" height="26px" viewBox="0 0 78 26" version="1.1" xmlns="http://www.w3.org/2000/svg" xmlns:xlink="http://www.w3.org/1999/xlink">
    <!-- Generator: Sketch 52.6 (67491) - http://www.bohemiancoding.com/sketch -->
    <title>Google_ico_login</title>
    <desc>Created with Sketch.</desc>
    <g id="1-st-Step-for-HTML---Demonstrator" stroke="none" stroke-width="1" fill="none" fill-rule="evenodd">
        <g id="Artboard" transform="translate(-134.000000, -153.000000)" fill-rule="nonzero">
            <g id="Google_ico_login" transform="translate(134.000000, 153.000000)">
                <path d="M33.255814,13.6046512 C33.255814,17.2599555 30.4052574,19.9534884 26.9069767,19.9534884 C23.4086961,19.9534884 20.5581395,17.2599555 20.5581395,13.6046512 C20.5581395,9.92358504 23.4086961,7.25581395 26.9069767,7.25581395 C30.4052574,7.25581395 33.255814,9.92358504 33.255814,13.6046512 Z M30.4765926,13.6046512 C30.4765926,11.3204437 28.8244683,9.75756495 26.9069767,9.75756495 C24.9894852,9.75756495 23.3373609,11.3204437 23.3373609,13.6046512 C23.3373609,15.8659593 24.9894852,17.4517374 26.9069767,17.4517374 C28.8244683,17.4517374 30.4765926,15.8630969 30.4765926,13.6046512 Z" id="Shape" fill="#EA4335"></path>
                <path d="M47.1627907,13.6046512 C47.1627907,17.2599555 44.3122341,19.9534884 40.8139535,19.9534884 C37.3156729,19.9534884 34.4651163,17.2599555 34.4651163,13.6046512 C34.4651163,9.92644746 37.3156729,7.25581395 40.8139535,7.25581395 C44.3122341,7.25581395 47.1627907,9.92358504 47.1627907,13.6046512 Z M44.3835694,13.6046512 C44.3835694,11.3204437 42.731445,9.75756495 40.8139535,9.75756495 C38.896462,9.75756495 37.2443376,11.3204437 37.2443376,13.6046512 C37.2443376,15.8659593 38.896462,17.4517374 40.8139535,17.4517374 C42.731445,17.4517374 44.3835694,15.8630969 44.3835694,13.6046512 Z" id="Shape" fill="#FBBC05"></path>
                <path d="M60.4651163,7.64686501 L60.4651163,19.2675016 C60.4651163,24.047663 57.7177361,26 54.4697981,26 C51.4124133,26 49.5722943,23.9017484 48.8783391,22.1857931 L51.2901179,21.1556362 C51.7195738,22.2091394 52.771883,23.4523316 54.466954,23.4523316 C56.5459756,23.4523316 57.8343433,22.1361821 57.8343433,19.6585527 L57.8343433,18.7276177 L57.7376447,18.7276177 C57.1176355,19.5126381 55.9231224,20.1984366 54.4157606,20.1984366 C51.2616771,20.1984366 48.372093,17.379367 48.372093,13.7519307 C48.372093,10.0982298 51.2616771,7.25581395 54.4157606,7.25581395 C55.9202783,7.25581395 57.1147914,7.94161245 57.7376447,8.70328652 L57.8343433,8.70328652 L57.8343433,7.6497833 L60.4651163,7.6497833 L60.4651163,7.64686501 Z M58.0305848,13.7519307 C58.0305848,11.4727451 56.5488197,9.80640069 54.6631954,9.80640069 C52.7519744,9.80640069 51.1507581,11.4727451 51.1507581,13.7519307 C51.1507581,16.00777 52.7519744,17.6507681 54.6631954,17.6507681 C56.5488197,17.6507681 58.0305848,16.00777 58.0305848,13.7519307 Z" id="Shape" fill="#4285F4"></path>
                <polygon id="Shape" fill="#34A853" points="65.3023256 0.604651163 65.3023256 19.3488372 62.2790698 19.3488372 62.2790698 0.604651163"></polygon>
                <path d="M75.6411067,15.6970768 L77.8758477,17.1397341 C77.1545821,18.173066 75.4164502,19.9534884 72.4131474,19.9534884 C68.688579,19.9534884 65.9069767,17.1654958 65.9069767,13.6046512 C65.9069767,9.82912534 68.7122271,7.25581395 72.0909427,7.25581395 C75.4933064,7.25581395 77.1575381,9.8777864 77.7014433,11.294682 L78,12.0160107 L69.2354402,15.5310567 C69.9064538,16.8048315 70.9499241,17.4545998 72.4131474,17.4545998 C73.8793267,17.4545998 74.896193,16.7561704 75.6411067,15.6970768 Z M68.7624792,13.4128693 L74.6212844,11.0571015 C74.2990797,10.2642125 73.3295095,9.71176631 72.1884909,9.71176631 C70.7252676,9.71176631 68.688579,10.9626418 68.7624792,13.4128693 Z" id="Shape" fill="#EA4335"></path>
                <path d="M10.0708521,11.8596953 L10.0708521,9.13376145 L19.213329,9.13376145 C19.3027068,9.6088445 19.3488372,10.170833 19.3488372,10.7791711 C19.3488372,12.8243457 18.7923888,15.3532939 16.9990678,17.1551333 C15.2547605,18.9801475 13.0260835,19.9534884 10.0737352,19.9534884 C4.60151158,19.9534884 0,15.4749615 0,9.97674419 C0,4.47852686 4.60151158,0 10.0737352,0 C13.1010455,0 15.2576436,1.19350134 16.8779754,2.74910866 L14.9635621,4.67261567 C13.8016516,3.57760716 12.2274502,2.72593388 10.0708521,2.72593388 C6.07480256,2.72593388 2.94946513,5.96171299 2.94946513,9.97674419 C2.94946513,13.9917754 6.07480256,17.2275545 10.0708521,17.2275545 C12.6628063,17.2275545 14.1389804,16.1817924 15.0846545,15.2316263 C15.8515731,14.4610647 16.3561248,13.3602625 16.5550623,11.8567985 L10.0708521,11.8596953 Z" id="Shape" fill="#4285F4"></path>
            </g>
        </g>
    </g>
</svg>