<?xml version="1.0" encoding="UTF-8"?>
<svg width="107px" height="77px" viewBox="0 0 107 77" version="1.1" xmlns="http://www.w3.org/2000/svg" xmlns:xlink="http://www.w3.org/1999/xlink">
    <!-- Generator: Sketch 53.2 (72643) - https://sketchapp.com -->
    <title>ico_upload_cloud</title>
    <desc>Created with Sketch.</desc>
    <g id="Combined-UF-Pages-for-HTML" stroke="none" stroke-width="1" fill="none" fill-rule="evenodd">
        <g id="cma_2-create-2" transform="translate(-552.000000, -350.000000)" fill-rule="nonzero" stroke="#7678ED" stroke-width="2">
            <g id="ico_upload_cloud" transform="translate(552.000000, 350.000000)">
                <path d="M13.1633083,37.3236749 L13.1538654,37.9560495 L12.5784667,38.218544 C5.58383052,41.4094676 1,48.3987048 1,56.2222222 C1,67.1451873 9.85481273,76 20.7777778,76 L86.2222222,76 C97.1451873,76 106,67.1451873 106,56.2222222 C106,45.7418904 97.8236345,37.0965936 87.4114327,36.4795771 L86.5276495,36.4272051 L86.472528,35.5435891 C85.2644178,16.1771841 69.2478356,1 49.8522727,1 C29.7977967,1 13.4639813,17.1882987 13.1633083,37.3236749 Z" id="Combined-Shape"></path>
                <g id="Group-5" transform="translate(36.000000, 33.000000)">
                    <path d="M14.5,43 L14.5,1.22857143" id="Path-12"></path>
                    <polyline id="Path-14" points="0 14.7428571 14.5 0 29 14.7428571"></polyline>
                </g>
            </g>
        </g>
    </g>
</svg>