<?xml version="1.0" encoding="UTF-8"?>
<svg width="19px" height="25px" viewBox="0 0 19 25" version="1.1" xmlns="http://www.w3.org/2000/svg" xmlns:xlink="http://www.w3.org/1999/xlink">
    <!-- Generator: Sketch 52.6 (67491) - http://www.bohemiancoding.com/sketch -->
    <title>ico_art_value</title>
    <desc>Created with Sketch.</desc>
    <g id="1-st-Step-for-HTML---Demonstrator" stroke="none" stroke-width="1" fill="none" fill-rule="evenodd">
        <g id="Artboard" transform="translate(-73.000000, -212.000000)" fill-rule="nonzero">
            <g id="ico_art_value" transform="translate(73.000000, 212.000000)">
                <g id="Group-2">
                    <rect id="Rectangle-Copy" fill="#FFFFFF" opacity="0.04" x="0" y="0" width="19" height="25"></rect>
                    <g id="Group-18-Copy-2" transform="translate(9.010420, 12.147700) rotate(29.000000) translate(-9.010420, -12.147700) translate(5.781131, 0.110663)">
                        <path d="M4.99929494,12.8459794 L4.55563131,1.58487892 C4.5379606,1.13635974 3.97673685,0.7 3.25214045,0.7 C2.52754406,0.7 1.9663203,1.13635974 1.94864959,1.58487892 L1.50409447,12.8686075 C2.06142625,12.6714529 2.66454236,12.5679717 3.28439071,12.5679717 C3.87998216,12.5679717 4.46018932,12.6635013 4.99929494,12.8459794 Z" id="Combined-Shape" stroke="#848080" stroke-width="1.4"></path>
                        <path d="M3.36518955,22.0367869 C4.95305581,19.4730689 5.74154098,17.5947386 5.74154098,16.4698987 C5.74154098,14.6746723 4.63662265,13.2761864 3.36518955,13.2761864 C2.09375644,13.2761864 0.988838112,14.6746723 0.988838112,16.4698987 C0.988838112,17.5947386 1.77732328,19.4730689 3.36518955,22.0367869 Z" id="Oval-3-Copy" stroke="#848080" stroke-width="1.4"></path>
                        <path d="M1.07036701,19.2906501 C1.37721702,19.3329709 1.69056623,19.3548387 2.0090049,19.3548387 C3.5819972,19.3548387 5.03080362,18.8212503 6.18550224,17.924598 C5.76452472,19.2963717 4.82442049,21.101891 3.36518955,23.3411557 C2.34799982,21.7802259 1.58305898,20.4300574 1.07036701,19.2906501 Z" id="Combined-Shape" fill="#848080"></path>
                    </g>
                </g>
            </g>
        </g>
    </g>
</svg>