<?xml version="1.0" encoding="UTF-8"?>
<svg width="46px" height="43px" viewBox="0 0 46 43" version="1.1" xmlns="http://www.w3.org/2000/svg" xmlns:xlink="http://www.w3.org/1999/xlink">
    <!-- Generator: Sketch 53.2 (72643) - https://sketchapp.com -->
    <title>promote_fb_press</title>
    <desc>Created with Sketch.</desc>
    <g id="Combined-UF-Pages-for-HTML" stroke="none" stroke-width="1" fill="none" fill-rule="evenodd">
        <g id="cma_2-create-4-copy" transform="translate(-1042.000000, -1050.000000)">
            <g id="promote_fb_press" transform="translate(1043.000000, 1051.000000)">
                <path d="M11,7.68 L33,7.68 C39.0751322,7.68 44,12.6048678 44,18.68 L44,31 C44,37.0751322 39.0751322,42 33,42 L11,42 C4.92486775,42 7.43989126e-16,37.0751322 0,31 L0,18.68 C-7.43989126e-16,12.6048678 4.92486775,7.68 11,7.68 Z" id="Rectangle-3" fill="#FFFFFF" fill-rule="nonzero"></path>
                <path d="M11,0 L33,0 C39.0751322,-1.11598369e-15 44,4.92486775 44,11 L44,30.36 C44,36.4351322 39.0751322,41.36 33,41.36 L11,41.36 C4.92486775,41.36 3.44188981e-15,36.4351322 0,30.36 L0,11 C-7.43989126e-16,4.92486775 4.92486775,1.11598369e-15 11,0 Z" id="Rectangle-3" stroke="#7678ED" fill="#FFFFFF" fill-rule="nonzero"></path>
                <g id="face_icon" transform="translate(7.920000, 7.040000)">
                    <rect id="Rectangle-15" x="0" y="0" width="27.7011429" height="27.7011429"></rect>
                    <g id="F_icon" transform="translate(2.770114, 3.324137)" fill-rule="nonzero">
                        <path d="M20.9378879,22.1609143 C21.6132482,22.1609143 22.1609143,21.6132524 22.1609143,20.9377254 L22.1609143,1.22310286 C22.1609143,0.547489868 21.6133342,0 20.9378879,0 L1.22311235,0 C0.547494117,0 0,0.547489868 0,1.22310286 L0,20.9377254 C0,21.6131665 0.547408127,22.1609143 1.22311235,22.1609143 L20.9378879,22.1609143 Z" id="Blue_1_" fill="#7678ED"></path>
                        <path d="M15.6042134,22.1609143 L15.6042134,13.4307021 L18.5740626,13.4307021 L19.0187554,10.0283836 L15.6042134,10.0283836 L15.6042134,7.85621812 C15.6042134,6.87116838 15.8814371,6.19988948 17.3130359,6.19988948 L19.1389714,6.19910221 L19.1389714,3.15604118 C18.8231828,3.1145783 17.7392884,3.02194286 16.4782617,3.02194286 C13.8456555,3.02194286 12.0433021,4.60750467 12.0433021,7.51926655 L12.0433021,10.0283836 L9.06582857,10.0283836 L9.06582857,13.4307021 L12.0433021,13.4307021 L12.0433021,22.1609143 L15.6042134,22.1609143 Z" id="f" fill="#FFFFFF"></path>
                    </g>
                </g>
            </g>
        </g>
    </g>
</svg>