<?xml version="1.0" encoding="UTF-8"?>
<svg width="46px" height="45px" viewBox="0 0 46 45" version="1.1" xmlns="http://www.w3.org/2000/svg" xmlns:xlink="http://www.w3.org/1999/xlink">
    <!-- Generator: Sketch 53.2 (72643) - https://sketchapp.com -->
    <title>promote_tweet</title>
    <desc>Created with Sketch.</desc>
    <g id="Combined-UF-Pages-for-HTML" stroke="none" stroke-width="1" fill="none" fill-rule="evenodd">
        <g id="cma_2-create-4-copy" transform="translate(-515.000000, -1048.000000)">
            <g id="promote_tweet" transform="translate(516.000000, 1049.000000)">
                <g id="Group-4" fill-rule="nonzero">
                    <path d="M11,9.68 L33,9.68 C39.0751322,9.68 44,14.6048678 44,20.68 L44,33 C44,39.0751322 39.0751322,44 33,44 L11,44 C4.92486775,44 2.52034597e-15,39.0751322 1.77635684e-15,33 L1.77635684e-15,20.68 C1.03236771e-15,14.6048678 4.92486775,9.68 11,9.68 Z" id="Rectangle-3" fill="#7678ED"></path>
                    <path d="M11,0 L33,0 C39.0751322,-1.11598369e-15 44,4.92486775 44,11 L44,30.36 C44,36.4351322 39.0751322,41.36 33,41.36 L11,41.36 C4.92486775,41.36 7.43989126e-16,36.4351322 0,30.36 L0,11 C-7.43989126e-16,4.92486775 4.92486775,1.11598369e-15 11,0 Z" id="Rectangle-3" stroke="#7678ED" fill="#FFFFFF"></path>
                </g>
                <g id="tweet_icon" transform="translate(8.800000, 7.040000)">
                    <rect id="Rectangle-15" x="0" y="0" width="27.7011429" height="27.7011429"></rect>
                    <path d="M24.8537572,8.77494455 C24.871341,9.01415438 24.871341,9.25341682 24.871341,9.49262665 C24.871341,16.7888422 19.1588778,25.1957951 8.71815721,25.1957951 C5.50156585,25.1957951 2.51350981,24.2901323 0,22.7181745 C0.457016539,22.7694037 0.896395171,22.7864976 1.37099551,22.7864976 C4.02506753,22.7864976 6.46829623,21.9150753 8.41934079,20.4284819 C5.92341478,20.3772001 3.83175391,18.7880957 3.11108855,16.6009142 C3.46265638,16.6521434 3.81417011,16.6863312 4.18332174,16.6863312 C4.69303558,16.6863312 5.20280353,16.6179555 5.67734976,16.4984032 C3.07597505,15.9857431 1.12487639,13.7644262 1.12487639,11.081731 L1.12487639,11.0134079 C1.88065525,11.4235045 2.75957483,11.6798082 3.6910835,11.7139435 C2.16188787,10.7228637 1.16004399,9.03124831 1.16004399,7.11746444 C1.16004399,6.09224937 1.44122251,5.15245137 1.93340665,4.33225828 C4.72814908,7.68135376 8.92905463,9.86848274 13.6396199,10.1077452 C13.551755,9.69764863 13.4990036,9.27051075 13.4990036,8.84332027 C13.4990036,5.80175775 16.0300972,3.32413714 19.1763534,3.32413714 C20.8109977,3.32413714 22.2874419,3.99053745 23.3245075,5.06703431 C24.607584,4.82782447 25.8379632,4.36644614 26.9277802,3.73423369 C26.5058772,5.01580511 25.609482,6.09230197 24.4318542,6.77574362 C25.5743685,6.65619129 26.6817152,6.34855314 27.7011429,5.92141526 C26.9278884,7.01495345 25.9611039,7.98888672 24.8537572,8.77494455 Z" id="Shape" fill="#7678ED" fill-rule="nonzero"></path>
                </g>
            </g>
        </g>
    </g>
</svg>