<?xml version="1.0" encoding="UTF-8"?>
<svg width="46px" height="45px" viewBox="0 0 46 45" version="1.1" xmlns="http://www.w3.org/2000/svg" xmlns:xlink="http://www.w3.org/1999/xlink">
    <!-- Generator: Sketch 53.2 (72643) - https://sketchapp.com -->
    <title>promote_insta</title>
    <desc>Created with Sketch.</desc>
    <g id="Combined-UF-Pages-for-HTML" stroke="none" stroke-width="1" fill="none" fill-rule="evenodd">
        <g id="cma_2-create-4-copy" transform="translate(-639.000000, -1048.000000)" fill-rule="nonzero">
            <g id="promote_insta" transform="translate(640.000000, 1049.000000)">
                <g id="Group-3">
                    <path d="M11,10 L33,10 C39.0751322,10 44,14.9248678 44,21 L44,33 C44,39.0751322 39.0751322,44 33,44 L11,44 C4.92486775,44 7.43989126e-16,39.0751322 0,33 L0,21 C-7.43989126e-16,14.9248678 4.92486775,10 11,10 Z" id="Rectangle-3" fill="#7678ED"></path>
                    <rect id="Rectangle-3" stroke="#7678ED" fill="#FFFFFF" x="0" y="0" width="44" height="41" rx="11"></rect>
                </g>
                <g id="iconmonstr-instagram-11" transform="translate(7.000000, 6.000000)" fill="#7678ED">
                    <path d="M15,2.70375 C19.005,2.70375 19.48,2.71875 21.0625,2.79125 C25.1275,2.97625 27.02625,4.905 27.21125,8.94 C27.28375,10.52125 27.2975,10.99625 27.2975,15.00125 C27.2975,19.0075 27.2825,19.48125 27.21125,21.0625 C27.025,25.09375 25.13125,27.02625 21.0625,27.21125 C19.48,27.28375 19.0075,27.29875 15,27.29875 C10.995,27.29875 10.52,27.28375 8.93875,27.21125 C4.86375,27.025 2.975,25.0875 2.79,21.06125 C2.7175,19.48 2.7025,19.00625 2.7025,15 C2.7025,10.995 2.71875,10.52125 2.79,8.93875 C2.97625,4.905 4.87,2.975 8.93875,2.79 C10.52125,2.71875 10.995,2.70375 15,2.70375 L15,2.70375 Z M15,6.07153217e-16 C10.92625,6.07153217e-16 10.41625,0.0175 8.81625,0.09 C3.36875,0.34 0.34125,3.3625 0.09125,8.815 C0.0175,10.41625 0,10.92625 0,15 C0,19.07375 0.0175,19.585 0.09,21.185 C0.34,26.6325 3.3625,29.66 8.815,29.91 C10.41625,29.9825 10.92625,30 15,30 C19.07375,30 19.585,29.9825 21.185,29.91 C26.6275,29.66 29.6625,26.6375 29.90875,21.185 C29.9825,19.585 30,19.07375 30,15 C30,10.92625 29.9825,10.41625 29.91,8.81625 C29.665,3.37375 26.63875,0.34125 21.18625,0.09125 C19.585,0.0175 19.07375,0 15,6.07153217e-16 Z M15,7.2975 C10.74625,7.2975 7.2975,10.74625 7.2975,15 C7.2975,19.25375 10.74625,22.70375 15,22.70375 C19.25375,22.70375 22.7025,19.255 22.7025,15 C22.7025,10.74625 19.25375,7.2975 15,7.2975 Z M15,20 C12.23875,20 10,17.7625 10,15 C10,12.23875 12.23875,10 15,10 C17.76125,10 20,12.23875 20,15 C20,17.7625 17.76125,20 15,20 Z M23.0075,5.19375 C22.0125,5.19375 21.20625,6 21.20625,6.99375 C21.20625,7.9875 22.0125,8.79375 23.0075,8.79375 C24.00125,8.79375 24.80625,7.9875 24.80625,6.99375 C24.80625,6 24.00125,5.19375 23.0075,5.19375 Z" id="Shape"></path>
                </g>
            </g>
        </g>
    </g>
</svg>