<?xml version="1.0" encoding="UTF-8"?>
<svg width="28px" height="24px" viewBox="0 0 28 24" version="1.1" xmlns="http://www.w3.org/2000/svg" xmlns:xlink="http://www.w3.org/1999/xlink">
    <!-- Generator: Sketch 52.6 (67491) - http://www.bohemiancoding.com/sketch -->
    <title>tweet_ico_login</title>
    <desc>Created with Sketch.</desc>
    <g id="1-st-Step-for-HTML---Demonstrator" stroke="none" stroke-width="1" fill="none" fill-rule="evenodd">
        <g id="Artboard" transform="translate(-134.000000, -32.000000)" fill-rule="nonzero">
            <g id="tweet_ico_login" transform="translate(134.000000, 32.000000)">
                <rect id="Rectangle" fill="#FFFFFF" opacity="0.01" x="0" y="0" width="28" height="24"></rect>
                <path d="M24.7031602,7.98435685 C24.7206375,8.20309641 24.7206375,8.42188406 24.7206375,8.64062361 C24.7206375,15.3124686 19.0427879,23 8.66533105,23 C5.46823007,23 2.49827963,22.171839 2.30926389e-14,20.7344007 C0.454247326,20.781246 0.890963621,20.7968771 1.3626882,20.7968771 C4.00067833,20.7968771 6.42910271,20.0000265 8.36832526,18.6406477 C5.88752288,18.5937543 3.80853607,17.1406368 3.09223745,15.1406224 C3.44167502,15.1874677 3.79105881,15.2187299 4.15797363,15.2187299 C4.66459895,15.2187299 5.17127804,15.1562054 5.64294885,15.0468838 C3.05733672,14.5780943 1.1180604,12.5468657 1.1180604,10.0937411 L1.1180604,10.0312647 C1.86925974,10.4062674 2.74285366,10.640638 3.66871802,10.6718522 C2.14878829,9.76558363 1.15301491,8.21872753 1.15301491,6.46871491 C1.15301491,5.53123219 1.43248967,4.671857 1.92169151,3.92185159 C4.69949969,6.98434964 8.87495057,8.98431597 13.556973,9.20310362 C13.4696405,8.82810091 13.4172087,8.43751518 13.4172087,8.04688135 C13.4172087,5.26559926 15.9329656,3 19.0601576,3 C20.6848971,3 22.152395,3.60937338 23.1831767,4.59374947 C24.4584786,4.37500992 25.6814026,3.95311384 26.764616,3.37500271 C26.3452694,4.5469042 25.4543058,5.53128029 24.2838136,6.1562367 C25.419405,6.04691502 26.520042,5.76560287 27.5332926,5.37501713 C26.7647235,6.37497625 25.8037971,7.26556559 24.7031602,7.98435685 Z" id="Shape" fill="#41ABE1"></path>
            </g>
        </g>
    </g>
</svg>