<?xml version="1.0" encoding="UTF-8"?>
<svg width="32px" height="32px" viewBox="0 0 32 32" version="1.1" xmlns="http://www.w3.org/2000/svg" xmlns:xlink="http://www.w3.org/1999/xlink">
    <!-- Generator: Sketch 53.2 (72643) - https://sketchapp.com -->
    <title>Upvote_ico</title>
    <desc>Created with Sketch.</desc>
    <g id="Combined-UF-Pages-for-HTML" stroke="none" stroke-width="1" fill="none" fill-rule="evenodd">
        <g id="cma_4-one-2-copy" transform="translate(-520.000000, -941.000000)" fill="#FFFFFF">
            <g id="Upvote_ico" transform="translate(520.000000, 941.000000)">
                <rect id="Rectangle" fill-rule="nonzero" opacity="0.0106956845" x="0" y="0" width="32" height="32"></rect>
                <path d="M12.1887729,14.9400651 L11,14.9400651 C9.8954305,14.9400651 9,15.8354956 9,16.9400651 L9,22.1291897 L11.6573108,24.7644496 L11.6573108,26.7902705 C15.5546999,26.7902705 18.7434729,26.7902705 21.2236296,26.7902705 C22.0005766,22.1291897 23.6953928,17.7377434 22.8180161,15.2363202 C22.2730565,13.6826266 19.7928997,12.9913647 15.3775459,13.1625343 L15.3775459,6.59438647 C15.3775459,5.71383114 14.6637147,5 13.7831594,5 L13.7831594,5 C12.9026041,5 12.1887729,5.71383114 12.1887729,6.59438647 L12.1887729,18.4951267" id="Path-2-Copy-4" stroke="#191919" stroke-width="2"></path>
            </g>
        </g>
    </g>
</svg>