<?xml version="1.0" encoding="UTF-8"?>
<svg width="51px" height="45px" viewBox="0 0 51 45" version="1.1" xmlns="http://www.w3.org/2000/svg" xmlns:xlink="http://www.w3.org/1999/xlink">
    <!-- Generator: Sketch 53.2 (72643) - https://sketchapp.com -->
    <title>header_MOB_Logo_white</title>
    <desc>Created with Sketch.</desc>
    <g id="CMA-Mobile-UF" stroke="none" stroke-width="1" fill="none" fill-rule="evenodd">
        <g id="Artboard-Copy-5" transform="translate(-181.000000, -19.000000)" fill-rule="nonzero">
            <g id="header_MOB_Logo_white" transform="translate(182.000000, 20.000000)">
                <g id="Group-10" transform="translate(10.000000, 8.800000)" fill="#7678ED">
                    <path d="M3.33333333,17.6 C5.1742825,17.6 6.66666667,15.6300529 6.66666667,13.2 C6.66666667,11.5799647 5.83333333,7.17996473 4.16666667,0 C1.38888889,7.17996473 0,11.5799647 0,13.2 C0,15.6300529 1.49238417,17.6 3.33333333,17.6 Z" id="Oval-17"></path>
                    <path d="M25.5555556,17.6 C27.3965047,17.6 28.8888889,15.6300529 28.8888889,13.2 C28.8888889,11.5799647 28.0555556,7.17996473 26.3888889,0 C23.6111111,7.17996473 22.2222222,11.5799647 22.2222222,13.2 C22.2222222,15.6300529 23.7146064,17.6 25.5555556,17.6 Z" id="Oval-17" transform="translate(25.555556, 8.800000) scale(-1, 1) translate(-25.555556, -8.800000) "></path>
                </g>
                <g id="Group-4" stroke="#CACACA" stroke-width="1.4">
                    <g id="Group">
                        <path d="M24.5746692,16.2946495 C24.1237378,10.0788393 21.9819625,6.9709342 18.1493433,6.9709342 C12.4004144,6.9709342 8.12472598,14.322284 8.12472598,20.5348762 C8.12472598,23.7805284 10.1504885,26.8576143 12.8265293,26.8576143 C15.5025701,26.8576143 16.9462715,24.3495133 16.9462715,20.5348762 C16.9462715,12.5472576 9.88820995,0 5.07141014,0 C0.254610332,1.01530551e-15 -2.68898458,21.8435849 3.53772053,31.5713755 C8.43320694,39.219444 15.4455232,43.0434783 24.5746692,43.0434783" id="Path-Copy-7"></path>
                        <path d="M49.1493384,16.2946495 C48.698407,10.0788393 46.5566317,6.9709342 42.7240125,6.9709342 C36.9750836,6.9709342 32.6993952,14.322284 32.6993952,20.5348762 C32.6993952,23.7805284 34.7251577,26.8576143 37.4011985,26.8576143 C40.0772392,26.8576143 41.5209407,24.3495133 41.5209407,20.5348762 C41.5209407,12.5472576 34.4628791,0 29.6460793,0 C24.8292795,1.01530551e-15 21.8856846,21.8435849 28.1123897,31.5713755 C33.0078761,39.219444 40.0201924,43.0434783 49.1493384,43.0434783" id="Path-Copy-6" transform="translate(36.862004, 21.521739) scale(-1, 1) translate(-36.862004, -21.521739) "></path>
                    </g>
                </g>
                <ellipse id="Oval-15" stroke="#848080" stroke-width="1.2" fill="#F6FF40" cx="24.8611111" cy="15.8125" rx="3.15" ry="3.1125"></ellipse>
                <path d="M24.2281033,35.4786389 C28.4041695,35.4786389 31.78954,32.7146049 31.78954,31.3447569 C31.78954,29.9749089 28.4041695,31.6203491 24.2281033,31.6203491 C20.0520372,31.6203491 16.6666667,29.9749089 16.6666667,31.3447569 C16.6666667,32.7146049 20.0520372,35.4786389 24.2281033,35.4786389 Z" id="Oval-10-Copy-2" fill="#CACACA"></path>
            </g>
        </g>
    </g>
</svg>