<?xml version="1.0" encoding="UTF-8"?>
<svg width="52px" height="45px" viewBox="0 0 52 45" version="1.1" xmlns="http://www.w3.org/2000/svg" xmlns:xlink="http://www.w3.org/1999/xlink">
    <!-- Generator: Sketch 53.2 (72643) - https://sketchapp.com -->
    <title>header_MOB_Logo</title>
    <desc>Created with Sketch.</desc>
    <g id="CMA-Mobile-UF" stroke="none" stroke-width="1" fill="none" fill-rule="evenodd">
        <g id="01_mob-3-copy-10" transform="translate(-179.000000, -19.000000)" fill-rule="nonzero">
            <g id="header_MOB_Logo" transform="translate(180.000000, 20.000000)">
                <g id="Group-10" transform="translate(10.057143, 8.800000)" fill="#CACACA">
                    <path d="M3.35238095,17.6 C5.20384983,17.6 6.7047619,15.6300529 6.7047619,13.2 C6.7047619,11.5799647 5.86666667,7.17996473 4.19047619,0 C1.3968254,7.17996473 0,11.5799647 0,13.2 C0,15.6300529 1.50091208,17.6 3.35238095,17.6 Z" id="Oval-17"></path>
                    <path d="M25.7015873,17.6 C27.5530562,17.6 29.0539683,15.6300529 29.0539683,13.2 C29.0539683,11.5799647 28.215873,7.17996473 26.5396825,0 C23.7460317,7.17996473 22.3492063,11.5799647 22.3492063,13.2 C22.3492063,15.6300529 23.8501184,17.6 25.7015873,17.6 Z" id="Oval-17" transform="translate(25.701587, 8.800000) scale(-1, 1) translate(-25.701587, -8.800000) "></path>
                </g>
                <g id="Group-4" stroke="#848080" stroke-width="1.4">
                    <g id="Group">
                        <path d="M24.7150959,16.2946495 C24.2615877,10.0788393 22.1075737,6.9709342 18.2530538,6.9709342 C12.471274,6.9709342 8.17115299,14.322284 8.17115299,20.5348762 C8.17115299,23.7805284 10.2084913,26.8576143 12.8998237,26.8576143 C15.5911562,26.8576143 17.0431073,24.3495133 17.0431073,20.5348762 C17.0431073,12.5472576 9.94471401,0 5.10038963,0 C0.256065249,1.01530551e-15 -2.70435021,21.8435849 3.55793608,31.5713755 C8.4813967,39.219444 15.5337833,43.0434783 24.7150959,43.0434783" id="Path-Copy-7"></path>
                        <path d="M49.4301917,16.2946495 C48.9766836,10.0788393 46.8226696,6.9709342 42.9681497,6.9709342 C37.1863698,6.9709342 32.8862489,14.322284 32.8862489,20.5348762 C32.8862489,23.7805284 34.9235872,26.8576143 37.6149196,26.8576143 C40.306252,26.8576143 41.7582032,24.3495133 41.7582032,20.5348762 C41.7582032,12.5472576 34.6598099,0 29.8154855,0 C24.9711611,1.01530551e-15 22.0107457,21.8435849 28.2730319,31.5713755 C33.1964926,39.219444 40.2488792,43.0434783 49.4301917,43.0434783" id="Path-Copy-6" transform="translate(37.072644, 21.521739) scale(-1, 1) translate(-37.072644, -21.521739) "></path>
                    </g>
                </g>
                <ellipse id="Oval-15" stroke="#848080" stroke-width="1.2" fill="#F6FF40" cx="25.0031746" cy="15.8125" rx="3.17142857" ry="3.1125"></ellipse>
                <path d="M24.3665496,35.4786389 C28.566479,35.4786389 31.9711945,32.7146049 31.9711945,31.3447569 C31.9711945,29.9749089 28.566479,31.6203491 24.3665496,31.6203491 C20.1666202,31.6203491 16.7619048,29.9749089 16.7619048,31.3447569 C16.7619048,32.7146049 20.1666202,35.4786389 24.3665496,35.4786389 Z" id="Oval-10-Copy-2" fill="#CACACA"></path>
            </g>
        </g>
    </g>
</svg>