<?xml version="1.0" encoding="UTF-8"?>
<svg width="69px" height="10px" viewBox="0 0 69 10" version="1.1" xmlns="http://www.w3.org/2000/svg" xmlns:xlink="http://www.w3.org/1999/xlink">
    <!-- Generator: Sketch 52.5 (67469) - http://www.bohemiancoding.com/sketch -->
    <title>logo_sign</title>
    <desc>Created with Sketch.</desc>
    <g id="1-st-Step-for-HTML---Demonstrator" stroke="none" stroke-width="1" fill="none" fill-rule="evenodd">
        <g id="BASIC_PAGES-1-Copy-2" transform="translate(-20.000000, -64.000000)" fill="#FFFFFF">
            <path d="M28.483,64.364 C29.3896712,64.364 30.0809976,64.6444972 30.557,65.2055 C31.0330024,65.7665028 31.271,66.5229952 31.271,67.475 L31.271,73 L29.231,73 L29.231,67.747 C29.231,67.1916639 29.1403342,66.7666681 28.959,66.472 C28.7776658,66.1773319 28.4773354,66.03 28.058,66.03 C27.6386646,66.03 27.3185011,66.1518321 27.0975,66.3955 C26.8764989,66.6391679 26.766,66.9989976 26.766,67.475 L26.766,73 L24.726,73 L24.726,67.747 C24.726,66.6023276 24.3406705,66.03 23.57,66.03 C23.0373307,66.03 22.6010017,66.2736642 22.261,66.761 L22.261,73 L20.221,73 L20.221,64.5 L21.955,64.5 L22.04,65.18 C22.5613359,64.6359973 23.2243293,64.364 24.029,64.364 C24.493669,64.364 24.9073315,64.4603324 25.27,64.653 C25.6326685,64.8456676 25.915999,65.1176649 26.12,65.469 C26.3920014,65.1176649 26.7291647,64.8456676 27.1315,64.653 C27.5338353,64.4603324 27.9843308,64.364 28.483,64.364 Z M36.439,73.17 C35.5776624,73.17 34.8466697,72.9716686 34.246,72.575 C33.6453303,72.1783314 33.1948348,71.64567 32.8945,70.977 C32.5941652,70.30833 32.444,69.5660041 32.444,68.75 C32.444,67.9113291 32.5856652,67.1605033 32.869,66.4975 C33.1523347,65.8344967 33.5716639,65.3131686 34.127,64.9335 C34.6823361,64.5538314 35.3453295,64.364 36.116,64.364 C37.0793381,64.364 37.8386639,64.7039966 38.394,65.384 C38.9493361,66.0640034 39.227,66.9763276 39.227,68.121 C39.227,68.4496683 39.1930003,68.8123313 39.125,69.209 L34.552,69.209 C34.6200003,69.9796705 34.8466647,70.5548314 35.232,70.9345 C35.6173353,71.3141686 36.0933305,71.504 36.66,71.504 C37.4306705,71.504 38.1616632,71.2773356 38.853,70.824 L38.904,72.609 C38.2126632,72.9830019 37.3910048,73.17 36.439,73.17 Z M37.17,67.781 C37.17,66.6136608 36.7733373,66.03 35.98,66.03 C35.1979961,66.03 34.7276675,66.6136608 34.569,67.781 L37.17,67.781 Z M48.764,64.364 C49.6706712,64.364 50.3619976,64.6444972 50.838,65.2055 C51.3140024,65.7665028 51.552,66.5229952 51.552,67.475 L51.552,73 L49.512,73 L49.512,67.747 C49.512,67.1916639 49.4213342,66.7666681 49.24,66.472 C49.0586658,66.1773319 48.7583354,66.03 48.339,66.03 C47.9196646,66.03 47.5995011,66.1518321 47.3785,66.3955 C47.1574989,66.6391679 47.047,66.9989976 47.047,67.475 L47.047,73 L45.007,73 L45.007,67.747 C45.007,66.6023276 44.6216705,66.03 43.851,66.03 C43.3183307,66.03 42.8820017,66.2736642 42.542,66.761 L42.542,73 L40.502,73 L40.502,64.5 L42.236,64.5 L42.321,65.18 C42.8423359,64.6359973 43.5053293,64.364 44.31,64.364 C44.774669,64.364 45.1883315,64.4603324 45.551,64.653 C45.9136685,64.8456676 46.196999,65.1176649 46.401,65.469 C46.6730014,65.1176649 47.0101647,64.8456676 47.4125,64.653 C47.8148353,64.4603324 48.2653308,64.364 48.764,64.364 Z M61.463,64.364 C62.3696712,64.364 63.0609976,64.6444972 63.537,65.2055 C64.0130024,65.7665028 64.251,66.5229952 64.251,67.475 L64.251,73 L62.211,73 L62.211,67.747 C62.211,67.1916639 62.1203342,66.7666681 61.939,66.472 C61.7576658,66.1773319 61.4573354,66.03 61.038,66.03 C60.6186646,66.03 60.2985011,66.1518321 60.0775,66.3955 C59.8564989,66.6391679 59.746,66.9989976 59.746,67.475 L59.746,73 L57.706,73 L57.706,67.747 C57.706,66.6023276 57.3206705,66.03 56.55,66.03 C56.0173307,66.03 55.5810017,66.2736642 55.241,66.761 L55.241,73 L53.201,73 L53.201,64.5 L54.935,64.5 L55.02,65.18 C55.5413359,64.6359973 56.2043293,64.364 57.009,64.364 C57.473669,64.364 57.8873315,64.4603324 58.25,64.653 C58.6126685,64.8456676 58.895999,65.1176649 59.1,65.469 C59.3720014,65.1176649 59.7091647,64.8456676 60.1115,64.653 C60.5138353,64.4603324 60.9643308,64.364 61.463,64.364 Z M65.662,70.688 L67.736,70.688 L67.736,73 L65.662,73 L65.662,70.688 Z M77.46,64.364 C78.3666712,64.364 79.0579976,64.6444972 79.534,65.2055 C80.0100024,65.7665028 80.248,66.5229952 80.248,67.475 L80.248,73 L78.208,73 L78.208,67.747 C78.208,67.1916639 78.1173342,66.7666681 77.936,66.472 C77.7546658,66.1773319 77.4543354,66.03 77.035,66.03 C76.6156646,66.03 76.2955011,66.1518321 76.0745,66.3955 C75.8534989,66.6391679 75.743,66.9989976 75.743,67.475 L75.743,73 L73.703,73 L73.703,67.747 C73.703,66.6023276 73.3176705,66.03 72.547,66.03 C72.0143307,66.03 71.5780017,66.2736642 71.238,66.761 L71.238,73 L69.198,73 L69.198,64.5 L70.932,64.5 L71.017,65.18 C71.5383359,64.6359973 72.2013293,64.364 73.006,64.364 C73.470669,64.364 73.8843315,64.4603324 74.247,64.653 C74.6096685,64.8456676 74.892999,65.1176649 75.097,65.469 C75.3690014,65.1176649 75.7061647,64.8456676 76.1085,64.653 C76.5108353,64.4603324 76.9613308,64.364 77.46,64.364 Z M85.416,73.17 C84.5546624,73.17 83.8236697,72.9716686 83.223,72.575 C82.6223303,72.1783314 82.1718348,71.64567 81.8715,70.977 C81.5711652,70.30833 81.421,69.5660041 81.421,68.75 C81.421,67.9113291 81.5626652,67.1605033 81.846,66.4975 C82.1293347,65.8344967 82.5486639,65.3131686 83.104,64.9335 C83.6593361,64.5538314 84.3223295,64.364 85.093,64.364 C86.0563382,64.364 86.8156639,64.7039966 87.371,65.384 C87.9263361,66.0640034 88.204,66.9763276 88.204,68.121 C88.204,68.4496683 88.1700003,68.8123313 88.102,69.209 L83.529,69.209 C83.5970003,69.9796705 83.8236647,70.5548314 84.209,70.9345 C84.5943353,71.3141686 85.0703305,71.504 85.637,71.504 C86.4076705,71.504 87.1386632,71.2773356 87.83,70.824 L87.881,72.609 C87.1896632,72.9830019 86.3680048,73.17 85.416,73.17 Z M86.147,67.781 C86.147,66.6136608 85.7503373,66.03 84.957,66.03 C84.1749961,66.03 83.7046675,66.6136608 83.546,67.781 L86.147,67.781 Z" id="logo_sign"></path>
        </g>
    </g>
</svg>