<?xml version="1.0" encoding="UTF-8"?>
<svg width="86px" height="30px" viewBox="0 0 86 30" version="1.1" xmlns="http://www.w3.org/2000/svg" xmlns:xlink="http://www.w3.org/1999/xlink">
    <!-- Generator: Sketch 52.5 (67469) - http://www.bohemiancoding.com/sketch -->
    <title>logo_name</title>
    <desc>Created with Sketch.</desc>
    <g id="1-st-Step-for-HTML---Demonstrator" stroke="none" stroke-width="1" fill="none" fill-rule="evenodd">
        <g id="BASIC_PAGES-1-Copy-2" transform="translate(-11.000000, -52.000000)" fill="#7678ED" fill-rule="nonzero">
            <g id="logo_name" transform="translate(11.000000, 52.000000)">
                <path d="M5.81178535,0.972239152 C17.8174903,2.94765936 30.0525123,3.93536946 42.5168515,3.93536946 C55.0727674,3.93536946 67.6381073,2.93309242 80.2128712,0.928538345 L80.21287,0.928530736 C82.9398664,0.493817863 85.5029382,2.35208082 85.9376511,5.07907721 C85.9791487,5.33939601 85.999995,5.60258886 85.999995,5.8661945 L85.9999906,23.344838 C85.9999906,25.9496535 84.0001759,28.1180899 81.4038721,28.3284952 C68.1851465,29.3997447 55.2228063,29.9353695 42.5168515,29.9353695 C29.8694259,29.9353695 17.2243778,29.404668 4.58170725,28.343265 L4.58170677,28.3432708 C1.99155612,28.1258172 -4.12257436e-15,25.9600558 -4.44089231e-15,23.3607931 L-1.4898925e-06,5.90590102 C-1.4898925e-06,3.14447645 2.23857543,0.905899532 5,0.905899532 C5.27194894,0.905899532 5.5434446,0.928086332 5.81178535,0.972239152 Z" id="Rectangle-6"></path>
            </g>
        </g>
    </g>
</svg>