<?xml version="1.0" encoding="UTF-8"?>
<svg width="46px" height="41px" viewBox="0 0 46 41" version="1.1" xmlns="http://www.w3.org/2000/svg" xmlns:xlink="http://www.w3.org/1999/xlink">
    <!-- Generator: Sketch 52.5 (67469) - http://www.bohemiancoding.com/sketch -->
    <title>logo_45x40_grey_blue</title>
    <desc>Created with Sketch.</desc>
    <g id="1-st-Step-for-HTML---Demonstrator" stroke="none" stroke-width="1" fill="none" fill-rule="evenodd">
        <g id="BASIC_PAGES-1-Copy-2" transform="translate(-137.000000, -107.000000)" fill-rule="nonzero">
            <g id="logo_45x40_grey_blue" transform="translate(138.000000, 108.000000)">
                <g id="Group-10" transform="translate(9.000000, 8.000000)" fill="#7678ED">
                    <path d="M3,16 C4.65685425,16 6,14.209139 6,12 C6,10.5272407 5.25,6.52724067 3.75,0 C1.25,6.52724067 0,10.5272407 0,12 C0,14.209139 1.34314575,16 3,16 Z" id="Oval-17"></path>
                    <path d="M23,16 C24.6568542,16 26,14.209139 26,12 C26,10.5272407 25.25,6.52724067 23.75,0 C21.25,6.52724067 20,10.5272407 20,12 C20,14.209139 21.3431458,16 23,16 Z" id="Oval-17" transform="translate(23.000000, 8.000000) scale(-1, 1) translate(-23.000000, -8.000000) "></path>
                </g>
                <g id="Group-7">
                    <g id="Group-4" opacity="0.588337054" stroke="#000000" stroke-width="1.4">
                        <g id="Group" opacity="0.01">
                            <path d="M22.1172023,14.8133177 C21.711364,9.16258118 19.7837662,6.33721291 16.3344089,6.33721291 C11.160373,6.33721291 7.31225339,13.0202581 7.31225339,18.6680693 C7.31225339,21.6186622 9.13543966,24.416013 11.5438764,24.416013 C13.952313,24.416013 15.2516443,22.1359212 15.2516443,18.6680693 C15.2516443,11.4065978 8.89938895,0 4.56426913,0 C0.229149299,9.23005009e-16 -2.42008612,19.8578044 3.18394848,28.7012505 C7.58988625,35.65404 13.9009708,39.1304348 22.1172023,39.1304348" id="Path-Copy-6"></path>
                            <path d="M44.2344045,14.8133177 C43.8285663,9.16258118 41.9009685,6.33721291 38.4516112,6.33721291 C33.2775753,6.33721291 29.4294557,13.0202581 29.4294557,18.6680693 C29.4294557,21.6186622 31.2526419,24.416013 33.6610786,24.416013 C36.0695153,24.416013 37.3688466,22.1359212 37.3688466,18.6680693 C37.3688466,11.4065978 31.0165912,0 26.6814714,0 C22.3463516,9.23005009e-16 19.6971161,19.8578044 25.3011507,28.7012505 C29.7070885,35.65404 36.0181731,39.1304348 44.2344045,39.1304348" id="Path-Copy-6" transform="translate(33.175803, 19.565217) scale(-1, 1) translate(-33.175803, -19.565217) "></path>
                        </g>
                    </g>
                    <circle id="Oval-15" stroke="#848080" stroke-width="1.2" fill="#F6FF40" cx="22.5" cy="14.625" r="2.775"></circle>
                </g>
            </g>
        </g>
    </g>
</svg>