<?xml version="1.0" encoding="UTF-8"?>
<svg width="34px" height="34px" viewBox="0 0 34 34" version="1.1" xmlns="http://www.w3.org/2000/svg" xmlns:xlink="http://www.w3.org/1999/xlink">
    <!-- Generator: Sketch 52.5 (67469) - http://www.bohemiancoding.com/sketch -->
    <title>Rectangle Copy 6</title>
    <desc>Created with Sketch.</desc>
    <g id="1-st-Step-for-HTML---Demonstrator" stroke="none" stroke-width="1" fill="none" fill-rule="evenodd">
        <g id="Header_LoggedIn" transform="translate(-1081.000000, -73.000000)">
            <rect fill="#FFFFFF" x="0" y="0" width="1200" height="125"></rect>
            <g id="bell-53-copy-2" opacity="0.787444196" transform="translate(1091.000000, 83.000000)" stroke="#848080" stroke-linecap="square" stroke-width="1.4">
                <path d="M9.54545455,16.1850649 C9.54545455,17.5373377 8.51136364,18.5714286 7.15909091,18.5714286 C5.80681818,18.5714286 4.77272727,17.5373377 4.77272727,16.1850649" id="Shape"></path>
                <path d="M12.7272727,9.54545455 C12.7272727,7.55681818 12.7272727,5.56818182 12.7272727,5.56818182 C12.7272727,2.46590909 10.2613636,0 7.15909091,0 C4.05681818,0 1.59090909,2.46590909 1.59090909,5.56818182 C1.59090909,5.56818182 1.59090909,7.55681818 1.59090909,9.54545455 C1.59090909,12.7272727 0,15.1136364 0,15.1136364 L14.3181818,15.1136364 C14.3181818,15.1136364 12.7272727,12.7272727 12.7272727,9.54545455 Z" id="Shape"></path>
            </g>
            <rect id="Rectangle-Copy-2" fill-rule="nonzero" x="1081" y="73" width="34" height="34"></rect>
        </g>
    </g>
</svg>